{
    "asset" : {
        "generator" : "Khronos glTF Blender I/O v1.2.75",
        "version" : "2.0"
    },
    "scene" : 0,
    "scenes" : [
        {
            "name" : "Scene",
            "nodes" : [
                0,
                1
            ]
        }
    ],
    "nodes" : [
        {
            "name" : "Empty",
            "rotation" : [
                0.5,
                0.5,
                -0.5,
                0.4999999701976776
            ],
            "translation" : [
                0,
                0.2951486110687256,
                0.3819569945335388
            ]
        },
        {
            "mesh" : 0,
            "name" : "Plane",
            "rotation" : [
                0,
                0,
                -0.7071067690849304,
                0.7071067690849304
            ],
            "translation" : [
                0,
                -1.5451897382736206,
                -1.467061996459961
            ]
        }
    ],
    "meshes" : [
        {
            "name" : "Plane",
            "primitives" : [
                {
                    "attributes" : {
                        "POSITION" : 0,
                        "NORMAL" : 1,
                        "TEXCOORD_0" : 2
                    },
                    "indices" : 3
                }
            ]
        }
    ],
    "accessors" : [
        {
            "bufferView" : 0,
            "componentType" : 5126,
            "count" : 267,
            "max" : [
                -0.4248872399330139,
                2.5138968240412396e-08,
                1.0058287382125854
            ],
            "min" : [
                -1.004047155380249,
                -1.7690560127903154e-10,
                0.03548184037208557
            ],
            "type" : "VEC3"
        },
        {
            "bufferView" : 1,
            "componentType" : 5126,
            "count" : 267,
            "type" : "VEC3"
        },
        {
            "bufferView" : 2,
            "componentType" : 5126,
            "count" : 267,
            "type" : "VEC2"
        },
        {
            "bufferView" : 3,
            "componentType" : 5123,
            "count" : 270,
            "type" : "SCALAR"
        }
    ],
    "bufferViews" : [
        {
            "buffer" : 0,
            "byteLength" : 3204,
            "byteOffset" : 0
        },
        {
            "buffer" : 0,
            "byteLength" : 3204,
            "byteOffset" : 3204
        },
        {
            "buffer" : 0,
            "byteLength" : 2136,
            "byteOffset" : 6408
        },
        {
            "buffer" : 0,
            "byteLength" : 540,
            "byteOffset" : 8544
        }
    ],
    "buffers" : [
        {
            "byteLength" : 9084,
            "uri" : "data:application/octet-stream;base64,"
        }
    ]
}
